<svg xmlns="http://www.w3.org/2000/svg" xmlns:xlink="http://www.w3.org/1999/xlink" width="200" zoomAndPan="magnify" viewBox="0 0 224.87999 225" height="200" preserveAspectRatio="xMidYMid meet" version="1.0"><defs><clipPath id="e0d6889e10"><path d="M 0 0.0585938 L 224.761719 0.0585938 L 224.761719 224.9375 L 0 224.9375 Z M 0 0.0585938 " clip-rule="nonzero"/></clipPath><clipPath id="f135ab179d"><path d="M 201 107 L 224.761719 107 L 224.761719 181 L 201 181 Z M 201 107 " clip-rule="nonzero"/></clipPath><clipPath id="f89cb16e5a"><path d="M 93 75 L 224.761719 75 L 224.761719 222 L 93 222 Z M 93 75 " clip-rule="nonzero"/></clipPath></defs><g clip-path="url(#e0d6889e10)"><path fill="#2cdf43" d="M 0 112.5 C 0 174.546875 50.300781 224.84375 112.34375 224.84375 C 174.394531 224.84375 224.691406 174.546875 224.691406 112.5 C 224.691406 50.453125 174.394531 0.15625 112.34375 0.15625 C 50.300781 0.15625 0 50.453125 0 112.5 " fill-opacity="1" fill-rule="nonzero"/></g><g clip-path="url(#f135ab179d)"><path fill="#ffffff" d="M 201.625 180.707031 C 216.09375 161.796875 224.691406 138.152344 224.691406 112.5 C 224.691406 110.742188 224.652344 108.992188 224.574219 107.253906 L 224.769531 107.457031 C 224.847656 109.246094 224.890625 111.039062 224.878906 112.847656 C 224.746094 138.394531 216.089844 161.910156 201.625 180.707031 " fill-opacity="1" fill-rule="nonzero"/></g><g clip-path="url(#f89cb16e5a)"><path fill="#2cdf43" d="M 140.089844 221.195312 L 93.101562 173.644531 L 192.675781 75.03125 L 224.574219 107.253906 C 224.652344 108.992188 224.691406 110.742188 224.691406 112.5 C 224.691406 138.152344 216.09375 161.796875 201.625 180.707031 C 186.460938 200.414062 164.910156 214.9375 140.089844 221.195312 " fill-opacity="1" fill-rule="nonzero"/></g><path fill="#ffffff" d="M 32.375 112.5 L 57.4375 88.03125 L 93.84375 124.4375 L 167.851562 51.027344 L 192.316406 74.902344 L 93.246094 173.972656 L 32.375 112.5 " fill-opacity="1" fill-rule="nonzero"/></svg>