<svg xmlns="http://www.w3.org/2000/svg" xmlns:xlink="http://www.w3.org/1999/xlink" width="200" zoomAndPan="magnify" viewBox="0 0 224.87999 225" height="200" preserveAspectRatio="xMidYMid meet" version="1.0"><defs><clipPath id="f8af86fde0"><path d="M 0 0.0585938 L 224.761719 0.0585938 L 224.761719 224.9375 L 0 224.9375 Z M 0 0.0585938 " clip-rule="nonzero"/></clipPath><clipPath id="239490f7b3"><path d="M 66 66 L 224.761719 66 L 224.761719 224.9375 L 66 224.9375 Z M 66 66 " clip-rule="nonzero"/></clipPath></defs><g clip-path="url(#f8af86fde0)"><path fill="#ff5757" d="M 0 112.5 C 0 174.597656 50.339844 224.941406 112.441406 224.941406 C 174.539062 224.941406 224.878906 174.597656 224.878906 112.5 C 224.878906 50.402344 174.539062 0.0585938 112.441406 0.0585938 C 50.339844 0.0585938 0 50.402344 0 112.5 " fill-opacity="1" fill-rule="nonzero"/></g><g clip-path="url(#239490f7b3)"><path fill="#ff5757" d="M 112.441406 224.941406 C 111.941406 224.941406 111.449219 224.925781 110.953125 224.921875 L 66.792969 180.757812 L 181.011719 66.535156 L 224.855469 110.378906 C 224.867188 111.085938 224.878906 111.792969 224.878906 112.5 C 224.878906 174.597656 174.539062 224.941406 112.441406 224.941406 " fill-opacity="1" fill-rule="nonzero"/></g><path fill="#ffffff" d="M 66.792969 180.757812 L 44.496094 158.464844 L 158.714844 44.242188 L 181.011719 66.535156 L 66.792969 180.757812 " fill-opacity="1" fill-rule="nonzero"/><path fill="#ffffff" d="M 181.011719 158.464844 L 158.714844 180.757812 L 44.496094 66.535156 L 66.792969 44.242188 L 181.011719 158.464844 " fill-opacity="1" fill-rule="nonzero"/></svg>