<svg xmlns="http://www.w3.org/2000/svg" xmlns:xlink="http://www.w3.org/1999/xlink" width="200" zoomAndPan="magnify" viewBox="0 0 224.87999 225" height="200" preserveAspectRatio="xMidYMid meet" version="1.0"><defs><clipPath id="ea7bd82d12"><path d="M 45 0.0585938 L 177 0.0585938 L 177 98 L 45 98 Z M 45 0.0585938 " clip-rule="nonzero"/></clipPath><clipPath id="69c1f5ae67"><path d="M 48 127 L 180 127 L 180 224.9375 L 48 224.9375 Z M 48 127 " clip-rule="nonzero"/></clipPath></defs><g clip-path="url(#ea7bd82d12)"><path fill="#ffde59" d="M 47.886719 26.894531 C 82.917969 -8.109375 139.71875 -8.109375 174.753906 26.894531 C 177.503906 29.644531 177.503906 34.105469 174.753906 36.855469 L 116.304688 95.253906 C 113.550781 98 109.085938 98 106.335938 95.253906 L 47.886719 36.855469 C 45.132812 34.105469 45.132812 29.644531 47.886719 26.894531 " fill-opacity="1" fill-rule="nonzero"/></g><path fill="#ff5757" d="M 125.582031 104.523438 L 184.03125 46.125 C 186.785156 43.375 191.246094 43.375 193.996094 46.125 C 229.03125 81.128906 229.03125 137.878906 193.996094 172.878906 C 191.246094 175.628906 186.785156 175.628906 184.03125 172.878906 L 125.582031 114.480469 C 122.828125 111.730469 122.828125 107.273438 125.582031 104.523438 " fill-opacity="1" fill-rule="nonzero"/><path fill="#5271ff" d="M 30.933594 51.941406 L 30.929688 51.941406 C -4.101562 86.941406 -4.101562 143.691406 30.929688 178.695312 L 30.933594 178.695312 C 33.683594 181.445312 38.148438 181.445312 40.898438 178.695312 L 99.347656 120.296875 C 102.101562 117.546875 102.101562 113.089844 99.347656 110.335938 L 40.898438 51.941406 C 38.148438 49.1875 33.683594 49.1875 30.933594 51.941406 " fill-opacity="1" fill-rule="nonzero"/><g clip-path="url(#69c1f5ae67)"><path fill="#2cdf43" d="M 108.628906 129.566406 L 50.179688 187.964844 C 47.425781 190.714844 47.425781 195.175781 50.179688 197.925781 C 85.210938 232.925781 142.011719 232.925781 177.046875 197.925781 C 179.796875 195.175781 179.796875 190.714844 177.046875 187.964844 L 118.597656 129.566406 C 115.84375 126.820312 111.382812 126.820312 108.628906 129.566406 " fill-opacity="1" fill-rule="nonzero"/></g><path fill="#ffffff" d="M 108.75 27.453125 L 117.566406 27.453125 L 117.566406 38.558594 L 128.804688 38.558594 L 128.804688 47.179688 L 117.566406 47.179688 L 117.566406 58.34375 L 108.75 58.34375 L 108.75 47.179688 L 97.511719 47.179688 L 97.511719 38.558594 L 108.75 38.558594 L 108.75 27.453125 " fill-opacity="1" fill-rule="nonzero"/><path fill="#ffffff" d="M 186.386719 94.195312 L 192.621094 100.425781 L 184.765625 108.277344 L 192.710938 116.214844 L 186.609375 122.3125 L 178.664062 114.375 L 170.761719 122.269531 L 164.523438 116.042969 L 172.425781 108.144531 L 164.480469 100.207031 L 170.582031 94.109375 L 178.53125 102.046875 L 186.386719 94.195312 " fill-opacity="1" fill-rule="nonzero"/><path fill="#ffffff" d="M 32.222656 117.289062 L 32.222656 108.234375 L 57.1875 108.234375 L 57.1875 117.289062 L 32.222656 117.289062 " fill-opacity="1" fill-rule="nonzero"/><path fill="#ffffff" d="M 99.265625 174.59375 L 99.265625 183.652344 L 124.230469 183.652344 L 124.230469 174.59375 L 99.265625 174.59375 " fill-opacity="1" fill-rule="nonzero"/><path fill="#ffffff" d="M 111.746094 167.679688 C 115.507812 167.679688 118.550781 164.632812 118.550781 160.882812 C 118.550781 157.125 115.507812 154.082031 111.746094 154.082031 C 107.988281 154.082031 104.945312 157.125 104.945312 160.882812 C 104.945312 164.632812 107.988281 167.679688 111.746094 167.679688 " fill-opacity="1" fill-rule="nonzero"/><path fill="#ffffff" d="M 111.746094 190.566406 C 107.988281 190.566406 104.945312 193.613281 104.945312 197.367188 C 104.945312 201.121094 107.988281 204.164062 111.746094 204.164062 C 115.507812 204.164062 118.550781 201.121094 118.550781 197.367188 C 118.550781 193.613281 115.507812 190.566406 111.746094 190.566406 " fill-opacity="1" fill-rule="nonzero"/></svg>